<svg xmlns="http://www.w3.org/2000/svg" width="800" height="450" viewBox="0 0 800 450">
  <defs>
    <linearGradient id="bg2" x1="0" y1="0" x2="1" y2="1">
      <stop offset="0" stop-color="#f59e0b"/>
      <stop offset="1" stop-color="#db2777"/>
    </linearGradient>
  </defs>
  <rect width="800" height="450" fill="url(#bg2)"/>
  <path d="M 0 60 L 800 60" stroke="#ffffff" stroke-width="3" opacity="0.7"/>
  <path d="M 40 60 l 25 34 25 -34 z" fill="#38bdf8" opacity="0.9"/>
  <path d="M 130 60 l 25 34 25 -34 z" fill="#a3e635" opacity="0.9"/>
  <path d="M 220 60 l 25 34 25 -34 z" fill="#fbbf24" opacity="0.9"/>
  <path d="M 310 60 l 25 34 25 -34 z" fill="#f472b6" opacity="0.9"/>
  <path d="M 400 60 l 25 34 25 -34 z" fill="#38bdf8" opacity="0.9"/>
  <path d="M 490 60 l 25 34 25 -34 z" fill="#a3e635" opacity="0.9"/>
  <path d="M 580 60 l 25 34 25 -34 z" fill="#fbbf24" opacity="0.9"/>
  <path d="M 670 60 l 25 34 25 -34 z" fill="#f472b6" opacity="0.9"/>
  <circle cx="120" cy="340" r="7" fill="#ffffff" opacity="0.8"/>
  <circle cx="200" cy="120" r="5" fill="#ffffff" opacity="0.7"/>
  <circle cx="640" cy="330" r="6" fill="#ffffff" opacity="0.8"/>
  <circle cx="700" cy="150" r="5" fill="#ffffff" opacity="0.7"/>
  <circle cx="90" cy="180" r="6" fill="#ffffff" opacity="0.6"/>
  <circle cx="730" cy="240" r="7" fill="#ffffff" opacity="0.6"/>
  <rect x="180" y="255" width="14" height="14" fill="#ffffff" opacity="0.6" transform="rotate(25 187 262)"/>
  <rect x="620" y="200" width="12" height="12" fill="#ffffff" opacity="0.6" transform="rotate(-15 626 206)"/>
  <rect x="200" y="130" width="400" height="190" rx="16" fill="#ffffff" opacity="0.96"/>
  <text x="400" y="218" text-anchor="middle" font-family="'Microsoft YaHei',sans-serif" font-size="46" font-weight="600" fill="#1e293b">博客开张</text>
  <text x="400" y="268" text-anchor="middle" font-family="'Microsoft YaHei',sans-serif" font-size="20" fill="#64748b">欢迎常来坐坐</text>
  <circle cx="200" cy="130" r="10" fill="#f59e0b"/>
  <circle cx="600" cy="130" r="10" fill="#db2777"/>
  <circle cx="200" cy="320" r="10" fill="#db2777"/>
  <circle cx="600" cy="320" r="10" fill="#f59e0b"/>
</svg>
